<?xml version="1.0" encoding="UTF-8" standalone="no"?>
<!DOCTYPE svg PUBLIC "-//W3C//DTD SVG 1.1//EN"
 "http://www.w3.org/Graphics/SVG/1.1/DTD/svg11.dtd">
<!-- Generated by graphviz version 2.43.0 (0)
 -->
<!-- Title: sourcetree Pages: 1 -->
<svg width="1059pt" height="260pt"
 viewBox="0.00 0.00 1058.50 260.00" xmlns="http://www.w3.org/2000/svg" xmlns:xlink="http://www.w3.org/1999/xlink">
<g id="graph0" class="graph" transform="scale(1 1) rotate(0) translate(4 256)">
<title>sourcetree</title>
<polygon fill="white" stroke="transparent" points="-4,4 -4,-256 1054.5,-256 1054.5,4 -4,4"/>
<!-- MulleBashStringExpansion -->
<g id="node1" class="node">
<title>MulleBashStringExpansion</title>
<polygon fill="yellow" stroke="black" points="435.5,-252 223.5,-252 223.5,-216 435.5,-216 435.5,-252"/>
<text text-anchor="middle" x="329.5" y="-230.3" font-family="Times,serif" font-size="14.00">MulleBashStringExpansion</text>
</g>
<!-- MulleObjCKVCFoundation -->
<g id="node2" class="node">
<title>MulleObjCKVCFoundation</title>
<g id="a_node2"><a xlink:href="https://github.com/MulleFoundation/MulleObjCKVCFoundation" xlink:title="MulleObjCKVCFoundation">
<polygon fill="lightgrey" stroke="black" points="203,-180 0,-180 0,-144 203,-144 203,-180"/>
<text text-anchor="middle" x="101.5" y="-158.3" font-family="Times,serif" font-size="14.00">MulleObjCKVCFoundation</text>
</a>
</g>
</g>
<!-- MulleBashStringExpansion&#45;&gt;MulleObjCKVCFoundation -->
<g id="edge1" class="edge">
<title>MulleBashStringExpansion&#45;&gt;MulleObjCKVCFoundation</title>
<path fill="none" stroke="black" d="M274.02,-215.97C241.74,-206.06 200.89,-193.51 167.04,-183.12"/>
<polygon fill="black" stroke="black" points="167.82,-179.7 157.23,-180.11 165.76,-186.39 167.82,-179.7"/>
</g>
<!-- MulleObjCRegexFoundation -->
<g id="node3" class="node">
<title>MulleObjCRegexFoundation</title>
<g id="a_node3"><a xlink:href="https://github.com/MulleFoundation/MulleObjCRegexFoundation" xlink:title="MulleObjCRegexFoundation">
<polygon fill="lightgrey" stroke="black" points="438,-180 221,-180 221,-144 438,-144 438,-180"/>
<text text-anchor="middle" x="329.5" y="-158.3" font-family="Times,serif" font-size="14.00">MulleObjCRegexFoundation</text>
</a>
</g>
</g>
<!-- MulleBashStringExpansion&#45;&gt;MulleObjCRegexFoundation -->
<g id="edge2" class="edge">
<title>MulleBashStringExpansion&#45;&gt;MulleObjCRegexFoundation</title>
<path fill="none" stroke="black" d="M329.5,-215.7C329.5,-207.98 329.5,-198.71 329.5,-190.11"/>
<polygon fill="black" stroke="black" points="333,-190.1 329.5,-180.1 326,-190.1 333,-190.1"/>
</g>
<!-- MulleObjCStandardFoundation -->
<g id="node4" class="node">
<title>MulleObjCStandardFoundation</title>
<g id="a_node4"><a xlink:href="https://github.com/MulleFoundation/MulleObjCStandardFoundation" xlink:title="MulleObjCStandardFoundation">
<polygon fill="lightgrey" stroke="black" points="789,-180 550,-180 550,-144 789,-144 789,-180"/>
<text text-anchor="middle" x="669.5" y="-158.3" font-family="Times,serif" font-size="14.00">MulleObjCStandardFoundation</text>
</a>
</g>
</g>
<!-- MulleBashStringExpansion&#45;&gt;MulleObjCStandardFoundation -->
<g id="edge3" class="edge">
<title>MulleBashStringExpansion&#45;&gt;MulleObjCStandardFoundation</title>
<path fill="none" stroke="black" d="M412.24,-215.97C461.9,-205.74 525.2,-192.71 576.58,-182.13"/>
<polygon fill="black" stroke="black" points="577.6,-185.49 586.69,-180.05 576.19,-178.64 577.6,-185.49"/>
</g>
<!-- mulle&#45;regex -->
<g id="node9" class="node">
<title>mulle&#45;regex</title>
<g id="a_node9"><a xlink:href="https://github.com/mulle-c/mulle-regex" xlink:title="mulle&#45;regex">
<polygon fill="lightgrey" stroke="black" points="333,-108 232,-108 232,-72 333,-72 333,-108"/>
<text text-anchor="middle" x="282.5" y="-86.3" font-family="Times,serif" font-size="14.00">mulle&#45;regex</text>
</a>
</g>
</g>
<!-- MulleObjCRegexFoundation&#45;&gt;mulle&#45;regex -->
<g id="edge5" class="edge">
<title>MulleObjCRegexFoundation&#45;&gt;mulle&#45;regex</title>
<path fill="none" stroke="black" d="M317.88,-143.7C312.36,-135.47 305.65,-125.48 299.57,-116.42"/>
<polygon fill="black" stroke="black" points="302.46,-114.46 293.98,-108.1 296.65,-118.36 302.46,-114.46"/>
</g>
<!-- MulleObjCContainerFoundation -->
<g id="node7" class="node">
<title>MulleObjCContainerFoundation</title>
<g id="a_node7"><a xlink:href="https://github.com/MulleFoundation/MulleObjCContainerFoundation" xlink:title="MulleObjCContainerFoundation">
<polygon fill="lightgrey" stroke="black" points="594,-108 351,-108 351,-72 594,-72 594,-108"/>
<text text-anchor="middle" x="472.5" y="-86.3" font-family="Times,serif" font-size="14.00">MulleObjCContainerFoundation</text>
</a>
</g>
</g>
<!-- MulleObjCStandardFoundation&#45;&gt;MulleObjCContainerFoundation -->
<g id="edge6" class="edge">
<title>MulleObjCStandardFoundation&#45;&gt;MulleObjCContainerFoundation</title>
<path fill="none" stroke="black" d="M621.56,-143.97C594.03,-134.19 559.28,-121.84 530.26,-111.52"/>
<polygon fill="black" stroke="black" points="531.25,-108.16 520.65,-108.11 528.91,-114.76 531.25,-108.16"/>
</g>
<!-- MulleObjCTimeFoundation -->
<g id="node10" class="node">
<title>MulleObjCTimeFoundation</title>
<g id="a_node10"><a xlink:href="https://github.com/MulleFoundation/MulleObjCTimeFoundation" xlink:title="MulleObjCTimeFoundation">
<polygon fill="lightgrey" stroke="black" points="820.5,-108 612.5,-108 612.5,-72 820.5,-72 820.5,-108"/>
<text text-anchor="middle" x="716.5" y="-86.3" font-family="Times,serif" font-size="14.00">MulleObjCTimeFoundation</text>
</a>
</g>
</g>
<!-- MulleObjCStandardFoundation&#45;&gt;MulleObjCTimeFoundation -->
<g id="edge7" class="edge">
<title>MulleObjCStandardFoundation&#45;&gt;MulleObjCTimeFoundation</title>
<path fill="none" stroke="black" d="M681.12,-143.7C686.64,-135.47 693.35,-125.48 699.43,-116.42"/>
<polygon fill="black" stroke="black" points="702.35,-118.36 705.02,-108.1 696.54,-114.46 702.35,-118.36"/>
</g>
<!-- MulleObjCValueFoundation -->
<g id="node11" class="node">
<title>MulleObjCValueFoundation</title>
<g id="a_node11"><a xlink:href="https://github.com/MulleFoundation/MulleObjCValueFoundation" xlink:title="MulleObjCValueFoundation">
<polygon fill="lightgrey" stroke="black" points="1050.5,-108 838.5,-108 838.5,-72 1050.5,-72 1050.5,-108"/>
<text text-anchor="middle" x="944.5" y="-86.3" font-family="Times,serif" font-size="14.00">MulleObjCValueFoundation</text>
</a>
</g>
</g>
<!-- MulleObjCStandardFoundation&#45;&gt;MulleObjCValueFoundation -->
<g id="edge8" class="edge">
<title>MulleObjCStandardFoundation&#45;&gt;MulleObjCValueFoundation</title>
<path fill="none" stroke="black" d="M736.42,-143.97C776.01,-133.89 826.32,-121.08 867.55,-110.59"/>
<polygon fill="black" stroke="black" points="868.45,-113.97 877.28,-108.11 866.72,-107.19 868.45,-113.97"/>
</g>
<!-- mulle&#45;buffer -->
<g id="node5" class="node">
<title>mulle&#45;buffer</title>
<g id="a_node5"><a xlink:href="https://github.com/mulle-c/mulle-buffer" xlink:title="mulle&#45;buffer">
<polygon fill="lightgrey" stroke="black" points="940.5,-36 836.5,-36 836.5,0 940.5,0 940.5,-36"/>
<text text-anchor="middle" x="888.5" y="-14.3" font-family="Times,serif" font-size="14.00">mulle&#45;buffer</text>
</a>
</g>
</g>
<!-- mulle&#45;container -->
<g id="node6" class="node">
<title>mulle&#45;container</title>
<g id="a_node6"><a xlink:href="https://github.com/mulle-c/mulle-container" xlink:title="mulle&#45;container">
<polygon fill="lightgrey" stroke="black" points="536.5,-36 408.5,-36 408.5,0 536.5,0 536.5,-36"/>
<text text-anchor="middle" x="472.5" y="-14.3" font-family="Times,serif" font-size="14.00">mulle&#45;container</text>
</a>
</g>
</g>
<!-- MulleObjCContainerFoundation&#45;&gt;mulle&#45;container -->
<g id="edge4" class="edge">
<title>MulleObjCContainerFoundation&#45;&gt;mulle&#45;container</title>
<path fill="none" stroke="black" d="M472.5,-71.7C472.5,-63.98 472.5,-54.71 472.5,-46.11"/>
<polygon fill="black" stroke="black" points="476,-46.1 472.5,-36.1 469,-46.1 476,-46.1"/>
</g>
<!-- MulleObjC -->
<g id="node8" class="node">
<title>MulleObjC</title>
<g id="a_node8"><a xlink:href="https://github.com/mulle-objc/MulleObjC" xlink:title="MulleObjC">
<polygon fill="lightgrey" stroke="black" points="762.5,-36 670.5,-36 670.5,0 762.5,0 762.5,-36"/>
<text text-anchor="middle" x="716.5" y="-14.3" font-family="Times,serif" font-size="14.00">MulleObjC</text>
</a>
</g>
</g>
<!-- MulleObjCTimeFoundation&#45;&gt;MulleObjC -->
<g id="edge9" class="edge">
<title>MulleObjCTimeFoundation&#45;&gt;MulleObjC</title>
<path fill="none" stroke="black" d="M716.5,-71.7C716.5,-63.98 716.5,-54.71 716.5,-46.11"/>
<polygon fill="black" stroke="black" points="720,-46.1 716.5,-36.1 713,-46.1 720,-46.1"/>
</g>
<!-- MulleObjCValueFoundation&#45;&gt;mulle&#45;buffer -->
<g id="edge10" class="edge">
<title>MulleObjCValueFoundation&#45;&gt;mulle&#45;buffer</title>
<path fill="none" stroke="black" d="M930.66,-71.7C924.01,-63.39 915.92,-53.28 908.61,-44.14"/>
<polygon fill="black" stroke="black" points="911.16,-41.73 902.18,-36.1 905.7,-46.1 911.16,-41.73"/>
</g>
<!-- mulle&#45;utf -->
<g id="node12" class="node">
<title>mulle&#45;utf</title>
<g id="a_node12"><a xlink:href="https://github.com/mulle-c/mulle-utf" xlink:title="mulle&#45;utf">
<polygon fill="lightgrey" stroke="black" points="1040,-36 959,-36 959,0 1040,0 1040,-36"/>
<text text-anchor="middle" x="999.5" y="-14.3" font-family="Times,serif" font-size="14.00">mulle&#45;utf</text>
</a>
</g>
</g>
<!-- MulleObjCValueFoundation&#45;&gt;mulle&#45;utf -->
<g id="edge11" class="edge">
<title>MulleObjCValueFoundation&#45;&gt;mulle&#45;utf</title>
<path fill="none" stroke="black" d="M958.1,-71.7C964.62,-63.39 972.57,-53.28 979.75,-44.14"/>
<polygon fill="black" stroke="black" points="982.63,-46.13 986.06,-36.1 977.13,-41.81 982.63,-46.13"/>
</g>
</g>
</svg>
