<?xml version="1.0" encoding="UTF-8" standalone="no"?>
<!DOCTYPE svg PUBLIC "-//W3C//DTD SVG 1.1//EN"
 "http://www.w3.org/Graphics/SVG/1.1/DTD/svg11.dtd">
<!-- Generated by graphviz version 2.43.0 (0)
 -->
<!-- Title: sourcetree Pages: 1 -->
<svg width="918pt" height="260pt"
 viewBox="0.00 0.00 917.50 260.00" xmlns="http://www.w3.org/2000/svg" xmlns:xlink="http://www.w3.org/1999/xlink">
<g id="graph0" class="graph" transform="scale(1 1) rotate(0) translate(4 256)">
<title>sourcetree</title>
<polygon fill="white" stroke="transparent" points="-4,4 -4,-256 913.5,-256 913.5,4 -4,4"/>
<!-- MulleBashStringExpansion -->
<g id="node1" class="node">
<title>MulleBashStringExpansion</title>
<polygon fill="yellow" stroke="black" points="435.5,-252 223.5,-252 223.5,-216 435.5,-216 435.5,-252"/>
<text text-anchor="middle" x="329.5" y="-230.3" font-family="Times,serif" font-size="14.00">MulleBashStringExpansion</text>
</g>
<!-- MulleObjCKVCFoundation -->
<g id="node2" class="node">
<title>MulleObjCKVCFoundation</title>
<g id="a_node2"><a xlink:href="https://github.com/MulleFoundation/MulleObjCKVCFoundation" xlink:title="MulleObjCKVCFoundation">
<polygon fill="lightgrey" stroke="black" points="203,-180 0,-180 0,-144 203,-144 203,-180"/>
<text text-anchor="middle" x="101.5" y="-158.3" font-family="Times,serif" font-size="14.00">MulleObjCKVCFoundation</text>
</a>
</g>
</g>
<!-- MulleBashStringExpansion&#45;&gt;MulleObjCKVCFoundation -->
<g id="edge1" class="edge">
<title>MulleBashStringExpansion&#45;&gt;MulleObjCKVCFoundation</title>
<path fill="none" stroke="black" d="M274.02,-215.97C241.74,-206.06 200.89,-193.51 167.04,-183.12"/>
<polygon fill="black" stroke="black" points="167.82,-179.7 157.23,-180.11 165.76,-186.39 167.82,-179.7"/>
</g>
<!-- MulleObjCRegexFoundation -->
<g id="node3" class="node">
<title>MulleObjCRegexFoundation</title>
<g id="a_node3"><a xlink:href="https://github.com/MulleFoundation/MulleObjCRegexFoundation" xlink:title="MulleObjCRegexFoundation">
<polygon fill="lightgrey" stroke="black" points="438,-180 221,-180 221,-144 438,-144 438,-180"/>
<text text-anchor="middle" x="329.5" y="-158.3" font-family="Times,serif" font-size="14.00">MulleObjCRegexFoundation</text>
</a>
</g>
</g>
<!-- MulleBashStringExpansion&#45;&gt;MulleObjCRegexFoundation -->
<g id="edge2" class="edge">
<title>MulleBashStringExpansion&#45;&gt;MulleObjCRegexFoundation</title>
<path fill="none" stroke="black" d="M329.5,-215.7C329.5,-207.98 329.5,-198.71 329.5,-190.11"/>
<polygon fill="black" stroke="black" points="333,-190.1 329.5,-180.1 326,-190.1 333,-190.1"/>
</g>
<!-- MulleObjCStandardFoundation -->
<g id="node4" class="node">
<title>MulleObjCStandardFoundation</title>
<g id="a_node4"><a xlink:href="https://github.com/MulleFoundation/MulleObjCStandardFoundation" xlink:title="MulleObjCStandardFoundation">
<polygon fill="lightgrey" stroke="black" points="695,-180 456,-180 456,-144 695,-144 695,-180"/>
<text text-anchor="middle" x="575.5" y="-158.3" font-family="Times,serif" font-size="14.00">MulleObjCStandardFoundation</text>
</a>
</g>
</g>
<!-- MulleBashStringExpansion&#45;&gt;MulleObjCStandardFoundation -->
<g id="edge3" class="edge">
<title>MulleBashStringExpansion&#45;&gt;MulleObjCStandardFoundation</title>
<path fill="none" stroke="black" d="M389.36,-215.97C424.48,-205.97 469.02,-193.3 505.73,-182.85"/>
<polygon fill="black" stroke="black" points="506.71,-186.21 515.37,-180.11 504.79,-179.48 506.71,-186.21"/>
</g>
<!-- MulleObjCContainerFoundation -->
<g id="node5" class="node">
<title>MulleObjCContainerFoundation</title>
<g id="a_node5"><a xlink:href="https://github.com/MulleFoundation/MulleObjCContainerFoundation" xlink:title="MulleObjCContainerFoundation">
<polygon fill="lightgrey" stroke="black" points="453,-108 210,-108 210,-72 453,-72 453,-108"/>
<text text-anchor="middle" x="331.5" y="-86.3" font-family="Times,serif" font-size="14.00">MulleObjCContainerFoundation</text>
</a>
</g>
</g>
<!-- MulleObjCStandardFoundation&#45;&gt;MulleObjCContainerFoundation -->
<g id="edge4" class="edge">
<title>MulleObjCStandardFoundation&#45;&gt;MulleObjCContainerFoundation</title>
<path fill="none" stroke="black" d="M516.12,-143.97C481.44,-134.01 437.49,-121.41 401.17,-110.99"/>
<polygon fill="black" stroke="black" points="401.72,-107.5 391.14,-108.11 399.79,-114.23 401.72,-107.5"/>
</g>
<!-- MulleObjCTimeFoundation -->
<g id="node7" class="node">
<title>MulleObjCTimeFoundation</title>
<g id="a_node7"><a xlink:href="https://github.com/MulleFoundation/MulleObjCTimeFoundation" xlink:title="MulleObjCTimeFoundation">
<polygon fill="lightgrey" stroke="black" points="679.5,-108 471.5,-108 471.5,-72 679.5,-72 679.5,-108"/>
<text text-anchor="middle" x="575.5" y="-86.3" font-family="Times,serif" font-size="14.00">MulleObjCTimeFoundation</text>
</a>
</g>
</g>
<!-- MulleObjCStandardFoundation&#45;&gt;MulleObjCTimeFoundation -->
<g id="edge5" class="edge">
<title>MulleObjCStandardFoundation&#45;&gt;MulleObjCTimeFoundation</title>
<path fill="none" stroke="black" d="M575.5,-143.7C575.5,-135.98 575.5,-126.71 575.5,-118.11"/>
<polygon fill="black" stroke="black" points="579,-118.1 575.5,-108.1 572,-118.1 579,-118.1"/>
</g>
<!-- MulleObjCValueFoundation -->
<g id="node8" class="node">
<title>MulleObjCValueFoundation</title>
<g id="a_node8"><a xlink:href="https://github.com/MulleFoundation/MulleObjCValueFoundation" xlink:title="MulleObjCValueFoundation">
<polygon fill="lightgrey" stroke="black" points="909.5,-108 697.5,-108 697.5,-72 909.5,-72 909.5,-108"/>
<text text-anchor="middle" x="803.5" y="-86.3" font-family="Times,serif" font-size="14.00">MulleObjCValueFoundation</text>
</a>
</g>
</g>
<!-- MulleObjCStandardFoundation&#45;&gt;MulleObjCValueFoundation -->
<g id="edge6" class="edge">
<title>MulleObjCStandardFoundation&#45;&gt;MulleObjCValueFoundation</title>
<path fill="none" stroke="black" d="M630.98,-143.97C663.26,-134.06 704.11,-121.51 737.96,-111.12"/>
<polygon fill="black" stroke="black" points="739.24,-114.39 747.77,-108.11 737.18,-107.7 739.24,-114.39"/>
</g>
<!-- MulleObjC -->
<g id="node6" class="node">
<title>MulleObjC</title>
<g id="a_node6"><a xlink:href="https://github.com/mulle-objc/MulleObjC" xlink:title="MulleObjC">
<polygon fill="lightgrey" stroke="black" points="621.5,-36 529.5,-36 529.5,0 621.5,0 621.5,-36"/>
<text text-anchor="middle" x="575.5" y="-14.3" font-family="Times,serif" font-size="14.00">MulleObjC</text>
</a>
</g>
</g>
<!-- MulleObjCTimeFoundation&#45;&gt;MulleObjC -->
<g id="edge7" class="edge">
<title>MulleObjCTimeFoundation&#45;&gt;MulleObjC</title>
<path fill="none" stroke="black" d="M575.5,-71.7C575.5,-63.98 575.5,-54.71 575.5,-46.11"/>
<polygon fill="black" stroke="black" points="579,-46.1 575.5,-36.1 572,-46.1 579,-46.1"/>
</g>
</g>
</svg>
